<svg xmlns="http://www.w3.org/2000/svg" viewBox="0 0 64 64" fill="none">
  <title>WeatherNow</title>
  <circle cx="26" cy="26" r="14" fill="#FDB813"/>
  <g stroke="#FDB813" stroke-width="3" stroke-linecap="round">
    <line x1="26" y1="4" x2="26" y2="12"/>
    <line x1="26" y1="40" x2="26" y2="48"/>
    <line x1="4" y1="26" x2="12" y2="26"/>
    <line x1="40" y1="26" x2="48" y2="26"/>
    <line x1="11" y1="11" x2="16" y2="16"/>
    <line x1="36" y1="36" x2="41" y2="41"/>
    <line x1="11" y1="41" x2="16" y2="36"/>
    <line x1="36" y1="16" x2="41" y2="11"/>
  </g>
  <path d="M44 38a10 10 0 0 0-9.8-8A12 12 0 0 0 23 40h21a6 6 0 0 0 0-12 10 10 0 0 0-2 .2A10 10 0 0 1 44 38Z" fill="#ffffff" stroke="#cbd5e1" stroke-width="2" stroke-linejoin="round"/>
  <path d="M20 44h26" stroke="#60a5fa" stroke-width="4" stroke-linecap="round"/>
</svg>
